<?xml version="1.0" standalone="no"?>
<!DOCTYPE svg PUBLIC "-//W3C//DTD SVG 20010904//EN"
 "http://www.w3.org/TR/2001/REC-SVG-20010904/DTD/svg10.dtd">
<svg version="1.0" xmlns="http://www.w3.org/2000/svg"
 width="512.000000pt" height="512.000000pt" viewBox="0 0 512.000000 512.000000"
 preserveAspectRatio="xMidYMid meet">

<g transform="translate(0.000000,512.000000) scale(0.100000,-0.100000)"
fill="#000000" stroke="none">
<path d="M1255 5096 c-59 -27 -118 -89 -135 -142 -7 -21 -20 -93 -29 -159
l-17 -120 -58 -7 c-94 -12 -175 -71 -205 -151 -11 -29 -71 -663 -71 -752 0
-47 3 -57 25 -71 13 -9 51 -18 84 -21 60 -6 60 -6 65 -42 3 -20 89 -803 191
-1740 120 -1097 191 -1716 201 -1739 24 -59 61 -99 116 -126 l52 -26 666 0
c647 0 667 1 684 19 10 11 18 36 19 57 1 28 -5 42 -27 60 l-27 24 -637 0
c-685 0 -664 -2 -692 50 -8 16 -70 528 -70 583 0 16 62 17 1170 17 1117 0
1170 -1 1170 -18 0 -51 -62 -567 -70 -581 -23 -44 -33 -46 -292 -51 -248 -5
-250 -5 -269 -29 -25 -31 -25 -85 1 -111 19 -19 33 -20 283 -20 l263 0 52 26
c55 27 92 67 116 126 10 23 81 642 201 1739 102 937 188 1720 191 1740 5 36 5
36 65 42 33 3 71 12 84 21 22 14 25 24 25 71 0 89 -60 723 -71 752 -30 80
-111 139 -205 151 l-58 7 -17 126 c-10 70 -24 142 -32 161 -22 53 -77 109
-132 134 l-50 24 -1255 0 -1255 0 -50 -24z m2553 -152 c12 -8 27 -25 33 -36
10 -18 38 -184 39 -225 0 -10 -195 -13 -940 -13 l-941 0 -24 -25 c-16 -15 -25
-36 -25 -55 0 -19 9 -40 25 -55 l24 -25 1045 0 c637 0 1054 -4 1070 -10 14 -5
30 -18 35 -29 10 -17 61 -528 61 -603 l0 -28 -1650 0 -1650 0 0 28 c0 75 51
586 61 603 5 11 21 24 35 29 14 6 163 10 335 10 183 0 318 4 329 10 26 14 42
65 29 97 -19 50 -29 52 -251 53 -160 0 -208 3 -208 13 0 14 17 138 26 186 3
20 18 46 36 63 l30 28 1227 0 c1092 0 1229 -2 1249 -16z m232 -1306 c0 -18
-11 -130 -25 -248 -14 -118 -25 -218 -25 -222 0 -5 -643 -8 -1430 -8 -786 0
-1430 3 -1430 8 0 4 -11 104 -25 222 -14 118 -25 230 -25 248 l0 32 1480 0
1480 0 0 -32z m-70 -650 c0 -31 -219 -2010 -222 -2014 -6 -6 -2369 -6 -2375 0
-4 4 -223 1979 -223 2014 0 9 289 12 1410 12 1121 0 1410 -3 1410 -12z"/>
<path d="M2403 2876 c-289 -55 -527 -234 -654 -491 -74 -150 -92 -230 -92
-405 0 -175 18 -255 92 -405 114 -231 332 -409 586 -477 114 -30 336 -30 450
0 254 68 472 246 586 477 74 150 92 230 92 405 0 175 -18 255 -92 405 -114
232 -336 412 -586 476 -103 26 -284 33 -382 15z m287 -46 c324 -51 587 -277
688 -590 130 -399 -57 -841 -433 -1027 -475 -236 -1039 2 -1203 507 -129 397
55 837 428 1025 161 82 347 112 520 85z"/>
<path d="M2493 2783 c-52 -4 -53 -4 -53 -37 0 -18 3 -61 6 -95 l7 -61 48 0
c60 0 79 7 79 31 0 15 -7 19 -40 19 -29 0 -40 4 -40 15 0 10 10 15 30 15 23 0
30 5 30 19 0 15 -8 21 -32 23 -18 2 -33 8 -33 13 0 6 15 11 33 13 26 3 32 7
32 28 0 13 -3 23 -7 22 -5 -1 -32 -3 -60 -5z"/>
<path d="M2620 2708 c-18 -113 -19 -111 15 -119 17 -4 45 -7 63 -8 25 -1 32 3
32 18 0 14 -10 21 -36 25 -44 9 -40 32 5 28 27 -2 31 1 31 22 0 19 -6 25 -25
28 -38 5 -26 24 13 20 26 -2 32 1 32 17 0 25 -4 27 -66 36 l-52 7 -12 -74z"/>
<path d="M2303 2743 c-24 -8 -43 -20 -43 -26 0 -28 53 -167 63 -167 30 1 40
17 29 48 -10 29 -9 31 19 37 30 7 33 12 23 39 -4 12 -11 13 -31 5 -17 -6 -30
-6 -36 0 -14 14 -1 29 32 36 22 5 28 10 24 26 -6 22 -22 23 -80 2z"/>
<path d="M2804 2686 c-42 -42 -46 -91 -11 -130 25 -28 65 -41 86 -27 19 12 6
41 -17 41 -30 0 -47 27 -36 57 13 37 39 51 65 35 25 -16 60 -7 52 14 -7 19
-55 44 -84 44 -11 0 -36 -15 -55 -34z"/>
<path d="M2145 2670 c-27 -17 -49 -35 -47 -42 7 -28 85 -148 96 -148 27 0 35
22 20 51 -13 27 -13 29 11 45 20 13 23 19 14 36 -10 18 -12 18 -36 3 -19 -13
-28 -14 -37 -5 -11 11 -6 18 39 45 13 8 14 13 3 27 -12 16 -16 16 -63 -12z"/>
<path d="M2949 2578 c-39 -53 -49 -75 -42 -87 18 -29 31 -21 78 46 59 84 61
89 37 102 -18 10 -26 3 -73 -61z"/>
<path d="M3027 2512 l-67 -68 44 -43 c38 -38 47 -42 61 -31 14 11 13 16 -10
46 -30 39 -16 57 19 25 21 -19 24 -20 36 -6 11 13 10 19 -4 33 -16 19 -22 42
-9 42 4 0 19 -11 33 -25 24 -23 28 -24 40 -10 12 14 7 22 -31 61 l-44 44 -68
-68z"/>
<path d="M1987 2549 c-26 -15 -48 -65 -41 -94 9 -35 69 -85 103 -85 37 0 78
33 86 69 17 76 -81 149 -148 110z m87 -72 c18 -25 19 -29 4 -43 -20 -20 -53
-11 -74 22 -14 20 -14 27 -4 40 19 21 50 14 74 -19z"/>
<path d="M2463 2530 c-197 -36 -365 -183 -434 -380 -33 -96 -32 -248 3 -346
143 -403 651 -511 936 -199 104 114 145 219 145 375 0 158 -41 263 -151 381
-123 133 -321 200 -499 169z m198 -54 c261 -56 440 -309 400 -566 -42 -277
-302 -473 -571 -431 -220 34 -393 204 -430 423 -44 256 135 517 393 573 81 18
128 18 208 1z"/>
<path d="M2436 2358 c-85 -23 -160 -133 -187 -272 -11 -61 -12 -146 0 -146 4
0 11 -33 14 -72 5 -76 43 -192 59 -182 5 3 26 -10 48 -30 56 -50 125 -68 220
-57 41 5 91 15 110 24 138 59 211 275 166 488 -26 119 -79 192 -171 235 -41
20 -66 24 -135 23 -47 -1 -103 -6 -124 -11z m106 -73 c-10 -85 -88 -195 -177
-246 -68 -39 -74 -38 -68 14 12 93 69 213 112 237 19 10 19 9 4 -36 -18 -53
-11 -69 11 -26 30 58 67 93 95 90 22 -3 26 -7 23 -33z m134 16 c22 -10 56 -37
76 -60 112 -131 98 -430 -26 -538 -38 -34 -94 -56 -128 -51 -26 3 -26 -9 -8
193 8 94 8 173 0 284 -6 84 -8 162 -5 172 8 24 38 24 91 0z m-126 -202 c0 -47
-26 -134 -56 -185 -28 -48 -140 -158 -153 -150 -13 9 -31 89 -31 144 0 43 3
50 25 60 36 16 35 17 36 -35 1 -52 2 -50 19 15 7 28 30 64 67 105 30 34 60 72
66 85 14 29 27 11 27 -39z m-4 -246 c-11 -142 -25 -203 -48 -203 -24 0 -90 34
-108 55 -12 14 -10 20 13 42 26 27 26 27 48 7 l21 -19 -6 32 c-6 25 -2 39 22
72 16 22 35 54 42 71 7 16 15 30 18 30 2 0 2 -39 -2 -87z"/>
<path d="M3138 2384 l-77 -45 31 -52 c17 -29 32 -53 33 -54 1 -2 10 3 20 11
18 13 18 14 1 41 -21 32 -24 29 58 77 41 25 45 30 36 48 -6 11 -14 20 -18 20
-4 0 -42 -21 -84 -46z"/>
<path d="M1870 2395 c-62 -66 2 -167 100 -156 25 3 71 61 68 84 -4 31 -42 30
-46 -1 -4 -28 -23 -37 -57 -28 -36 9 -53 50 -31 75 15 17 13 51 -3 51 -4 0
-18 -11 -31 -25z"/>
<path d="M3250 2150 c0 -5 -9 -10 -20 -10 -16 0 -19 -4 -12 -17 5 -10 7 -24 5
-31 -4 -9 1 -13 13 -11 11 2 25 0 32 -4 8 -5 12 -2 12 9 0 9 8 23 18 30 16 13
16 13 -1 14 -10 0 -20 7 -23 15 -7 17 -24 20 -24 5z"/>
<path d="M1833 2114 c-3 -8 -11 -14 -19 -14 -19 0 -18 -16 2 -24 10 -4 14 -12
10 -22 -5 -12 -2 -15 10 -10 8 3 23 6 32 6 28 0 24 54 -5 67 -19 9 -25 9 -30
-3z"/>
<path d="M3210 1921 c0 -11 9 -23 23 -27 l22 -8 -25 -6 c-14 -3 -26 -14 -28
-24 -3 -16 0 -18 19 -12 13 4 43 10 67 13 26 3 42 11 42 19 0 8 -8 14 -18 14
-9 0 -34 11 -54 25 -44 30 -48 30 -48 6z"/>
<path d="M1845 1896 c-33 -7 -51 -17 -53 -29 -3 -13 3 -17 23 -17 l27 0 -22
-18 c-18 -14 -21 -23 -13 -36 9 -16 11 -16 22 -2 9 10 22 14 37 10 32 -8 54
11 54 46 0 32 -9 60 -19 59 -3 0 -28 -6 -56 -13z m41 -53 c-10 -10 -19 5 -10
18 6 11 8 11 12 0 2 -7 1 -15 -2 -18z"/>
<path d="M3191 1807 c-6 -8 -14 -27 -17 -43 -5 -28 -3 -30 47 -46 29 -10 56
-15 61 -12 14 9 9 34 -7 34 -24 0 -17 18 7 22 13 2 24 11 26 22 3 15 0 18 -21
12 -17 -4 -27 -1 -31 9 -7 19 -50 20 -65 2z m39 -32 c0 -8 -7 -15 -15 -15 -9
0 -12 6 -9 15 4 8 10 15 15 15 5 0 9 -7 9 -15z"/>
<path d="M1872 1770 c-44 -18 -48 -79 -7 -106 58 -38 128 53 77 99 -21 19 -36
20 -70 7z m58 -43 c0 -19 -21 -37 -42 -37 -21 0 -25 35 -5 43 23 10 47 7 47
-6z"/>
<path d="M3136 1684 c-9 -19 -16 -36 -16 -38 0 -7 88 -56 99 -56 14 0 43 58
36 70 -10 16 -23 11 -30 -10 -9 -28 -27 -25 -19 4 6 27 -13 46 -22 22 -3 -9
-10 -16 -15 -16 -6 0 -5 8 1 19 13 25 13 28 -4 34 -8 3 -19 -8 -30 -29z"/>
<path d="M1932 1633 c-52 -16 -64 -34 -26 -42 24 -4 36 -22 24 -36 -5 -6 -5
-17 1 -25 8 -12 14 -10 35 15 44 52 55 72 48 89 -7 19 -13 19 -82 -1z m38 -33
c0 -5 -4 -10 -10 -10 -5 0 -10 5 -10 10 0 6 5 10 10 10 6 0 10 -4 10 -10z"/>
<path d="M3102 1618 c-9 -9 -6 -18 15 -40 28 -30 21 -37 -11 -13 -46 35 -63 1
-23 -44 l22 -25 -37 21 c-31 18 -39 19 -48 8 -9 -11 -1 -20 42 -44 61 -35 62
-36 77 -17 8 10 6 20 -11 41 l-21 27 30 -16 c27 -14 32 -14 43 -1 13 16 7 29
-43 88 -18 21 -26 24 -35 15z"/>
<path d="M2016 1544 c-3 -8 -3 -28 0 -42 5 -25 4 -25 -9 -9 -8 9 -19 17 -26
17 -17 0 -13 -35 7 -53 39 -36 78 -10 67 45 -5 30 -4 31 8 16 17 -21 37 -23
37 -5 0 37 -72 63 -84 31z"/>
<path d="M2107 1493 c-4 -3 -2 -12 4 -19 8 -10 4 -22 -17 -49 -21 -28 -24 -38
-15 -48 10 -9 19 -4 43 26 23 28 33 35 43 27 10 -8 15 -8 21 1 5 8 -5 23 -26
41 -36 29 -43 32 -53 21z"/>
<path d="M2965 1476 l-29 -24 37 -46 c21 -25 41 -46 45 -46 4 1 19 11 34 23
20 16 25 26 18 37 -7 12 -12 12 -28 -4 -12 -10 -22 -13 -26 -7 -4 5 2 14 11
20 14 8 15 12 6 22 -10 10 -15 9 -28 -1 -8 -7 -15 -8 -15 -2 0 5 7 15 15 22
14 12 12 30 -3 30 -4 0 -20 -11 -37 -24z"/>
<path d="M2180 1383 c-14 -27 -26 -51 -28 -55 -4 -7 50 -38 68 -38 16 0 12 27
-5 34 -8 3 -15 10 -15 16 0 7 6 8 19 0 27 -14 40 9 16 26 -24 18 -13 29 14 15
14 -8 22 -8 26 0 4 6 5 12 4 13 -26 19 -56 36 -64 36 -6 0 -22 -21 -35 -47z"/>
<path d="M2872 1413 c-18 -9 -32 -21 -32 -27 0 -6 13 -32 28 -58 20 -33 32
-44 41 -39 8 6 11 16 6 31 -6 20 -5 21 15 10 12 -6 29 -9 38 -5 15 6 15 8 -3
21 -11 8 -21 20 -21 27 -1 7 -2 17 -3 24 -2 25 -36 32 -69 16z m36 -34 c-2 -6
-8 -10 -13 -10 -5 0 -11 4 -13 10 -2 6 4 11 13 11 9 0 15 -5 13 -11z"/>
<path d="M2282 1320 c-18 -53 -19 -60 -5 -60 9 0 22 8 29 18 12 16 13 15 14
-5 0 -12 9 -27 21 -33 18 -10 20 -9 18 12 -2 13 4 34 13 47 21 29 9 57 -28 71
-39 15 -41 14 -62 -50z m66 9 c-2 -6 -8 -10 -13 -10 -5 0 -11 4 -13 10 -2 6 4
11 13 11 9 0 15 -5 13 -11z"/>
<path d="M2748 1363 c-22 -6 -22 -13 -2 -79 l17 -52 31 10 c57 20 70 42 41 72
-8 8 -15 24 -15 35 0 16 -6 21 -27 20 -16 -1 -36 -3 -45 -6z m42 -33 c0 -5 -4
-10 -10 -10 -5 0 -10 5 -10 10 0 6 5 10 10 10 6 0 10 -4 10 -10z m20 -38 c0
-13 -12 -22 -22 -16 -10 6 -1 24 13 24 5 0 9 -4 9 -8z"/>
<path d="M2406 1323 c4 -15 8 -45 9 -65 0 -27 5 -38 18 -42 11 -3 17 2 17 12
0 10 11 35 25 57 13 22 25 43 25 48 0 16 -30 5 -42 -15 l-12 -23 -6 25 c-3 14
-14 26 -24 28 -16 3 -18 0 -10 -25z"/>
<path d="M2570 1325 c-7 -8 -10 -24 -7 -35 3 -11 1 -23 -4 -26 -16 -9 -10 -43
10 -54 13 -7 28 -7 45 0 14 5 32 7 40 4 10 -4 13 5 13 35 0 42 -19 57 -31 25
-3 -8 -10 -13 -16 -9 -6 4 -5 13 2 25 22 35 -25 67 -52 35z"/>
<path d="M3260 1280 c-35 -35 -21 -90 26 -104 29 -9 74 28 74 60 0 29 -33 64
-60 64 -11 0 -29 -9 -40 -20z m68 -12 c30 -30 3 -83 -39 -76 -45 6 -42 88 4
88 13 0 28 -5 35 -12z"/>
<path d="M3270 1241 c0 -32 15 -50 23 -29 4 10 8 10 15 0 7 -11 10 -8 14 12 6
28 -7 46 -34 46 -13 0 -18 -8 -18 -29z"/>
</g>
</svg>
